<svg xmlns="http://www.w3.org/2000/svg" viewBox="0 0 512 512" width="512" height="512">
<defs><radialGradient id="g"><stop offset="0" stop-color="#e0a526" stop-opacity="0.55"/><stop offset="1" stop-color="#e0a526" stop-opacity="0"/></radialGradient>
<linearGradient id="bg" x1="0" y1="0" x2="0" y2="1"><stop offset="0" stop-color="#1f3354"/><stop offset="1" stop-color="#152640"/></linearGradient></defs>
<rect width="512" height="512" rx="112.64" fill="url(#bg)"/><line x1="268.288" y1="106.0864" x2="246.1696" y2="393.62559999999996" stroke="#e0a526" stroke-opacity="0.28" stroke-width="6.144" stroke-linecap="round"/><line x1="155.2384" y1="241.2544" x2="356.7616" y2="216.67839999999998" stroke="#e0a526" stroke-opacity="0.28" stroke-width="6.144" stroke-linecap="round"/><circle cx="246.1696" cy="393.62559999999996" r="48.771072" fill="url(#g)"/><path d="M246.1696,356.466688 Q252.6724096,387.1227904 283.328512,393.62559999999996 Q252.6724096,400.12840959999994 246.1696,430.78451199999995 Q239.6667904,400.12840959999994 209.01068800000002,393.62559999999996 Q239.6667904,387.1227904 246.1696,356.466688Z" fill="#e0a526"/><circle cx="155.2384" cy="241.2544" r="40.64256" fill="url(#g)"/><path d="M155.2384,210.28864 Q160.657408,235.835392 186.20416,241.2544 Q160.657408,246.673408 155.2384,272.22016 Q149.81939200000002,246.673408 124.27264000000001,241.2544 Q149.81939200000002,235.835392 155.2384,210.28864Z" fill="#e0a526"/><circle cx="268.288" cy="106.0864" r="43.352064" fill="url(#g)"/><path d="M268.288,73.05625599999999 Q274.0682752,100.30612479999999 301.318144,106.0864 Q274.0682752,111.8666752 268.288,139.116544 Q262.5077248,111.8666752 235.257856,106.0864 Q262.5077248,100.30612479999999 268.288,73.05625599999999Z" fill="#e0a526"/><circle cx="356.7616" cy="216.67839999999998" r="32.514048" fill="url(#g)"/><path d="M356.7616,191.905792 Q361.0968064,212.34319359999998 381.534208,216.67839999999998 Q361.0968064,221.0136064 356.7616,241.45100799999997 Q352.4263936,221.0136064 331.988992,216.67839999999998 Q352.4263936,212.34319359999998 356.7616,191.905792Z" fill="#e0a526"/><circle cx="317.44" cy="305.152" r="24.385536" fill="url(#g)"/><path d="M317.44,286.572544 Q320.6914048,301.9005952 336.019456,305.152 Q320.6914048,308.4034048 317.44,323.731456 Q314.1885952,308.4034048 298.860544,305.152 Q314.1885952,301.9005952 317.44,286.572544Z" fill="#e0a526"/></svg>